<svg version="1.1" xmlns="http://www.w3.org/2000/svg" xmlns:xlink="http://www.w3.org/1999/xlink" width="732" height="684"><defs/><g><text fill="#eeeeee" stroke="none" font-family="Arial" font-size="24px" font-style="normal" font-weight="normal" text-decoration="none" x="0" y="0">UNREGISTERED</text><text fill="#eeeeee" stroke="none" font-family="Arial" font-size="24px" font-style="normal" font-weight="normal" text-decoration="none" x="0" y="30">UNREGISTERED</text><text fill="#eeeeee" stroke="none" font-family="Arial" font-size="24px" font-style="normal" font-weight="normal" text-decoration="none" x="0" y="60">UNREGISTERED</text><text fill="#eeeeee" stroke="none" font-family="Arial" font-size="24px" font-style="normal" font-weight="normal" text-decoration="none" x="0" y="90">UNREGISTERED</text><text fill="#eeeeee" stroke="none" font-family="Arial" font-size="24px" font-style="normal" font-weight="normal" text-decoration="none" x="0" y="120">UNREGISTERED</text><text fill="#eeeeee" stroke="none" font-family="Arial" font-size="24px" font-style="normal" font-weight="normal" text-decoration="none" x="0" y="150">UNREGISTERED</text><text fill="#eeeeee" stroke="none" font-family="Arial" font-size="24px" font-style="normal" font-weight="normal" text-decoration="none" x="0" y="180">UNREGISTERED</text><text fill="#eeeeee" stroke="none" font-family="Arial" font-size="24px" font-style="normal" font-weight="normal" text-decoration="none" x="0" y="210">UNREGISTERED</text><text fill="#eeeeee" stroke="none" font-family="Arial" font-size="24px" font-style="normal" font-weight="normal" text-decoration="none" x="0" y="240">UNREGISTERED</text><text fill="#eeeeee" stroke="none" font-family="Arial" font-size="24px" font-style="normal" font-weight="normal" text-decoration="none" x="0" y="270">UNREGISTERED</text><text fill="#eeeeee" stroke="none" font-family="Arial" font-size="24px" font-style="normal" font-weight="normal" text-decoration="none" x="0" y="300">UNREGISTERED</text><text fill="#eeeeee" stroke="none" font-family="Arial" font-size="24px" font-style="normal" font-weight="normal" text-decoration="none" x="0" y="330">UNREGISTERED</text><text fill="#eeeeee" stroke="none" font-family="Arial" font-size="24px" font-style="normal" font-weight="normal" text-decoration="none" x="0" y="360">UNREGISTERED</text><text fill="#eeeeee" stroke="none" font-family="Arial" font-size="24px" font-style="normal" font-weight="normal" text-decoration="none" x="0" y="390">UNREGISTERED</text><text fill="#eeeeee" stroke="none" font-family="Arial" font-size="24px" font-style="normal" font-weight="normal" text-decoration="none" x="0" y="420">UNREGISTERED</text><text fill="#eeeeee" stroke="none" font-family="Arial" font-size="24px" font-style="normal" font-weight="normal" text-decoration="none" x="0" y="450">UNREGISTERED</text><text fill="#eeeeee" stroke="none" font-family="Arial" font-size="24px" font-style="normal" font-weight="normal" text-decoration="none" x="0" y="480">UNREGISTERED</text><text fill="#eeeeee" stroke="none" font-family="Arial" font-size="24px" font-style="normal" font-weight="normal" text-decoration="none" x="0" y="510">UNREGISTERED</text><text fill="#eeeeee" stroke="none" font-family="Arial" font-size="24px" font-style="normal" font-weight="normal" text-decoration="none" x="0" y="540">UNREGISTERED</text><text fill="#eeeeee" stroke="none" font-family="Arial" font-size="24px" font-style="normal" font-weight="normal" text-decoration="none" x="0" y="570">UNREGISTERED</text><text fill="#eeeeee" stroke="none" font-family="Arial" font-size="24px" font-style="normal" font-weight="normal" text-decoration="none" x="0" y="600">UNREGISTERED</text><text fill="#eeeeee" stroke="none" font-family="Arial" font-size="24px" font-style="normal" font-weight="normal" text-decoration="none" x="0" y="630">UNREGISTERED</text><text fill="#eeeeee" stroke="none" font-family="Arial" font-size="24px" font-style="normal" font-weight="normal" text-decoration="none" x="0" y="660">UNREGISTERED</text><text fill="#eeeeee" stroke="none" font-family="Arial" font-size="24px" font-style="normal" font-weight="normal" text-decoration="none" x="200" y="0">UNREGISTERED</text><text fill="#eeeeee" stroke="none" font-family="Arial" font-size="24px" font-style="normal" font-weight="normal" text-decoration="none" x="200" y="30">UNREGISTERED</text><text fill="#eeeeee" stroke="none" font-family="Arial" font-size="24px" font-style="normal" font-weight="normal" text-decoration="none" x="200" y="60">UNREGISTERED</text><text fill="#eeeeee" stroke="none" font-family="Arial" font-size="24px" font-style="normal" font-weight="normal" text-decoration="none" x="200" y="90">UNREGISTERED</text><text fill="#eeeeee" stroke="none" font-family="Arial" font-size="24px" font-style="normal" font-weight="normal" text-decoration="none" x="200" y="120">UNREGISTERED</text><text fill="#eeeeee" stroke="none" font-family="Arial" font-size="24px" font-style="normal" font-weight="normal" text-decoration="none" x="200" y="150">UNREGISTERED</text><text fill="#eeeeee" stroke="none" font-family="Arial" font-size="24px" font-style="normal" font-weight="normal" text-decoration="none" x="200" y="180">UNREGISTERED</text><text fill="#eeeeee" stroke="none" font-family="Arial" font-size="24px" font-style="normal" font-weight="normal" text-decoration="none" x="200" y="210">UNREGISTERED</text><text fill="#eeeeee" stroke="none" font-family="Arial" font-size="24px" font-style="normal" font-weight="normal" text-decoration="none" x="200" y="240">UNREGISTERED</text><text fill="#eeeeee" stroke="none" font-family="Arial" font-size="24px" font-style="normal" font-weight="normal" text-decoration="none" x="200" y="270">UNREGISTERED</text><text fill="#eeeeee" stroke="none" font-family="Arial" font-size="24px" font-style="normal" font-weight="normal" text-decoration="none" x="200" y="300">UNREGISTERED</text><text fill="#eeeeee" stroke="none" font-family="Arial" font-size="24px" font-style="normal" font-weight="normal" text-decoration="none" x="200" y="330">UNREGISTERED</text><text fill="#eeeeee" stroke="none" font-family="Arial" font-size="24px" font-style="normal" font-weight="normal" text-decoration="none" x="200" y="360">UNREGISTERED</text><text fill="#eeeeee" stroke="none" font-family="Arial" font-size="24px" font-style="normal" font-weight="normal" text-decoration="none" x="200" y="390">UNREGISTERED</text><text fill="#eeeeee" stroke="none" font-family="Arial" font-size="24px" font-style="normal" font-weight="normal" text-decoration="none" x="200" y="420">UNREGISTERED</text><text fill="#eeeeee" stroke="none" font-family="Arial" font-size="24px" font-style="normal" font-weight="normal" text-decoration="none" x="200" y="450">UNREGISTERED</text><text fill="#eeeeee" stroke="none" font-family="Arial" font-size="24px" font-style="normal" font-weight="normal" text-decoration="none" x="200" y="480">UNREGISTERED</text><text fill="#eeeeee" stroke="none" font-family="Arial" font-size="24px" font-style="normal" font-weight="normal" text-decoration="none" x="200" y="510">UNREGISTERED</text><text fill="#eeeeee" stroke="none" font-family="Arial" font-size="24px" font-style="normal" font-weight="normal" text-decoration="none" x="200" y="540">UNREGISTERED</text><text fill="#eeeeee" stroke="none" font-family="Arial" font-size="24px" font-style="normal" font-weight="normal" text-decoration="none" x="200" y="570">UNREGISTERED</text><text fill="#eeeeee" stroke="none" font-family="Arial" font-size="24px" font-style="normal" font-weight="normal" text-decoration="none" x="200" y="600">UNREGISTERED</text><text fill="#eeeeee" stroke="none" font-family="Arial" font-size="24px" font-style="normal" font-weight="normal" text-decoration="none" x="200" y="630">UNREGISTERED</text><text fill="#eeeeee" stroke="none" font-family="Arial" font-size="24px" font-style="normal" font-weight="normal" text-decoration="none" x="200" y="660">UNREGISTERED</text><text fill="#eeeeee" stroke="none" font-family="Arial" font-size="24px" font-style="normal" font-weight="normal" text-decoration="none" x="400" y="0">UNREGISTERED</text><text fill="#eeeeee" stroke="none" font-family="Arial" font-size="24px" font-style="normal" font-weight="normal" text-decoration="none" x="400" y="30">UNREGISTERED</text><text fill="#eeeeee" stroke="none" font-family="Arial" font-size="24px" font-style="normal" font-weight="normal" text-decoration="none" x="400" y="60">UNREGISTERED</text><text fill="#eeeeee" stroke="none" font-family="Arial" font-size="24px" font-style="normal" font-weight="normal" text-decoration="none" x="400" y="90">UNREGISTERED</text><text fill="#eeeeee" stroke="none" font-family="Arial" font-size="24px" font-style="normal" font-weight="normal" text-decoration="none" x="400" y="120">UNREGISTERED</text><text fill="#eeeeee" stroke="none" font-family="Arial" font-size="24px" font-style="normal" font-weight="normal" text-decoration="none" x="400" y="150">UNREGISTERED</text><text fill="#eeeeee" stroke="none" font-family="Arial" font-size="24px" font-style="normal" font-weight="normal" text-decoration="none" x="400" y="180">UNREGISTERED</text><text fill="#eeeeee" stroke="none" font-family="Arial" font-size="24px" font-style="normal" font-weight="normal" text-decoration="none" x="400" y="210">UNREGISTERED</text><text fill="#eeeeee" stroke="none" font-family="Arial" font-size="24px" font-style="normal" font-weight="normal" text-decoration="none" x="400" y="240">UNREGISTERED</text><text fill="#eeeeee" stroke="none" font-family="Arial" font-size="24px" font-style="normal" font-weight="normal" text-decoration="none" x="400" y="270">UNREGISTERED</text><text fill="#eeeeee" stroke="none" font-family="Arial" font-size="24px" font-style="normal" font-weight="normal" text-decoration="none" x="400" y="300">UNREGISTERED</text><text fill="#eeeeee" stroke="none" font-family="Arial" font-size="24px" font-style="normal" font-weight="normal" text-decoration="none" x="400" y="330">UNREGISTERED</text><text fill="#eeeeee" stroke="none" font-family="Arial" font-size="24px" font-style="normal" font-weight="normal" text-decoration="none" x="400" y="360">UNREGISTERED</text><text fill="#eeeeee" stroke="none" font-family="Arial" font-size="24px" font-style="normal" font-weight="normal" text-decoration="none" x="400" y="390">UNREGISTERED</text><text fill="#eeeeee" stroke="none" font-family="Arial" font-size="24px" font-style="normal" font-weight="normal" text-decoration="none" x="400" y="420">UNREGISTERED</text><text fill="#eeeeee" stroke="none" font-family="Arial" font-size="24px" font-style="normal" font-weight="normal" text-decoration="none" x="400" y="450">UNREGISTERED</text><text fill="#eeeeee" stroke="none" font-family="Arial" font-size="24px" font-style="normal" font-weight="normal" text-decoration="none" x="400" y="480">UNREGISTERED</text><text fill="#eeeeee" stroke="none" font-family="Arial" font-size="24px" font-style="normal" font-weight="normal" text-decoration="none" x="400" y="510">UNREGISTERED</text><text fill="#eeeeee" stroke="none" font-family="Arial" font-size="24px" font-style="normal" font-weight="normal" text-decoration="none" x="400" y="540">UNREGISTERED</text><text fill="#eeeeee" stroke="none" font-family="Arial" font-size="24px" font-style="normal" font-weight="normal" text-decoration="none" x="400" y="570">UNREGISTERED</text><text fill="#eeeeee" stroke="none" font-family="Arial" font-size="24px" font-style="normal" font-weight="normal" text-decoration="none" x="400" y="600">UNREGISTERED</text><text fill="#eeeeee" stroke="none" font-family="Arial" font-size="24px" font-style="normal" font-weight="normal" text-decoration="none" x="400" y="630">UNREGISTERED</text><text fill="#eeeeee" stroke="none" font-family="Arial" font-size="24px" font-style="normal" font-weight="normal" text-decoration="none" x="400" y="660">UNREGISTERED</text><text fill="#eeeeee" stroke="none" font-family="Arial" font-size="24px" font-style="normal" font-weight="normal" text-decoration="none" x="600" y="0">UNREGISTERED</text><text fill="#eeeeee" stroke="none" font-family="Arial" font-size="24px" font-style="normal" font-weight="normal" text-decoration="none" x="600" y="30">UNREGISTERED</text><text fill="#eeeeee" stroke="none" font-family="Arial" font-size="24px" font-style="normal" font-weight="normal" text-decoration="none" x="600" y="60">UNREGISTERED</text><text fill="#eeeeee" stroke="none" font-family="Arial" font-size="24px" font-style="normal" font-weight="normal" text-decoration="none" x="600" y="90">UNREGISTERED</text><text fill="#eeeeee" stroke="none" font-family="Arial" font-size="24px" font-style="normal" font-weight="normal" text-decoration="none" x="600" y="120">UNREGISTERED</text><text fill="#eeeeee" stroke="none" font-family="Arial" font-size="24px" font-style="normal" font-weight="normal" text-decoration="none" x="600" y="150">UNREGISTERED</text><text fill="#eeeeee" stroke="none" font-family="Arial" font-size="24px" font-style="normal" font-weight="normal" text-decoration="none" x="600" y="180">UNREGISTERED</text><text fill="#eeeeee" stroke="none" font-family="Arial" font-size="24px" font-style="normal" font-weight="normal" text-decoration="none" x="600" y="210">UNREGISTERED</text><text fill="#eeeeee" stroke="none" font-family="Arial" font-size="24px" font-style="normal" font-weight="normal" text-decoration="none" x="600" y="240">UNREGISTERED</text><text fill="#eeeeee" stroke="none" font-family="Arial" font-size="24px" font-style="normal" font-weight="normal" text-decoration="none" x="600" y="270">UNREGISTERED</text><text fill="#eeeeee" stroke="none" font-family="Arial" font-size="24px" font-style="normal" font-weight="normal" text-decoration="none" x="600" y="300">UNREGISTERED</text><text fill="#eeeeee" stroke="none" font-family="Arial" font-size="24px" font-style="normal" font-weight="normal" text-decoration="none" x="600" y="330">UNREGISTERED</text><text fill="#eeeeee" stroke="none" font-family="Arial" font-size="24px" font-style="normal" font-weight="normal" text-decoration="none" x="600" y="360">UNREGISTERED</text><text fill="#eeeeee" stroke="none" font-family="Arial" font-size="24px" font-style="normal" font-weight="normal" text-decoration="none" x="600" y="390">UNREGISTERED</text><text fill="#eeeeee" stroke="none" font-family="Arial" font-size="24px" font-style="normal" font-weight="normal" text-decoration="none" x="600" y="420">UNREGISTERED</text><text fill="#eeeeee" stroke="none" font-family="Arial" font-size="24px" font-style="normal" font-weight="normal" text-decoration="none" x="600" y="450">UNREGISTERED</text><text fill="#eeeeee" stroke="none" font-family="Arial" font-size="24px" font-style="normal" font-weight="normal" text-decoration="none" x="600" y="480">UNREGISTERED</text><text fill="#eeeeee" stroke="none" font-family="Arial" font-size="24px" font-style="normal" font-weight="normal" text-decoration="none" x="600" y="510">UNREGISTERED</text><text fill="#eeeeee" stroke="none" font-family="Arial" font-size="24px" font-style="normal" font-weight="normal" text-decoration="none" x="600" y="540">UNREGISTERED</text><text fill="#eeeeee" stroke="none" font-family="Arial" font-size="24px" font-style="normal" font-weight="normal" text-decoration="none" x="600" y="570">UNREGISTERED</text><text fill="#eeeeee" stroke="none" font-family="Arial" font-size="24px" font-style="normal" font-weight="normal" text-decoration="none" x="600" y="600">UNREGISTERED</text><text fill="#eeeeee" stroke="none" font-family="Arial" font-size="24px" font-style="normal" font-weight="normal" text-decoration="none" x="600" y="630">UNREGISTERED</text><text fill="#eeeeee" stroke="none" font-family="Arial" font-size="24px" font-style="normal" font-weight="normal" text-decoration="none" x="600" y="660">UNREGISTERED</text><g transform="translate(2,2) scale(1,1)"><path fill="none" stroke="#000000" d="M 8 8 L 720 8 L 720 672 L 8 672 L 8 8" stroke-miterlimit="10"/></g><g transform="translate(2,2) scale(1,1)"><path fill="#ffffff" stroke="none" d="M 8 8 L 8 30 L 229.9560546875 30 L 240.9560546875 19 L 240.9560546875 8 L 8 8"/></g><g transform="translate(2,2) scale(1,1)"><path fill="none" stroke="#000000" d="M 8 8 L 8 30 L 229.9560546875 30 L 240.9560546875 19 L 240.9560546875 8 L 8 8 L 8 8" stroke-miterlimit="10"/></g><g transform="translate(2,2) scale(1,1)"><g><path fill="none" stroke="none"/><text fill="#000000" stroke="none" font-family="Arial" font-size="13px" font-style="normal" font-weight="normal" text-decoration="none" x="32.72998046875" y="24">Diagrama Sequencia Decantador</text></g></g><g transform="translate(2,2) scale(1,1)"><g><path fill="none" stroke="none"/><text fill="#000000" stroke="none" font-family="Arial" font-size="13px" font-style="normal" font-weight="bold" text-decoration="none" x="12.279541015625" y="24">sd</text></g></g><g transform="translate(2,2) scale(1,1)"><path fill="#ffffff" stroke="none" d="M 118.6099715909091 47.3 C 118.6099715909091 43.82060576 121.4883733130909 41 125.0390625 41 C 128.5897516869091 41 131.46815340909092 43.82060576 131.46815340909092 47.3 C 131.46815340909092 50.779394239999995 128.5897516869091 53.6 125.0390625 53.6 C 121.4883733130909 53.6 118.6099715909091 50.779394239999995 118.6099715909091 47.3 Z"/></g><g transform="translate(2,2) scale(1,1)"><path fill="none" stroke="#000000" d="M 118.6099715909091 47.3 C 118.6099715909091 43.82060576 121.4883733130909 41 125.0390625 41 C 128.5897516869091 41 131.46815340909092 43.82060576 131.46815340909092 47.3 C 131.46815340909092 50.779394239999995 128.5897516869091 53.6 125.0390625 53.6 C 121.4883733130909 53.6 118.6099715909091 50.779394239999995 118.6099715909091 47.3 Z" stroke-miterlimit="10"/></g><g transform="translate(2,2) scale(1,1)"><path fill="none" stroke="#000000" d="M 125.0390625 53.6 L 125.0390625 66.4" stroke-miterlimit="10"/></g><g transform="translate(2,2) scale(1,1)"><path fill="none" stroke="#000000" d="M 118.23178977272728 58.4 L 131.84633522727273 58.4" stroke-miterlimit="10"/></g><g transform="translate(2,2) scale(1,1)"><path fill="none" stroke="#000000" d="M 125.0390625 66.4 L 115.58451704545455 79" stroke-miterlimit="10"/></g><g transform="translate(2,2) scale(1,1)"><path fill="none" stroke="#000000" d="M 125.0390625 66.4 L 134.49360795454547 79" stroke-miterlimit="10"/></g><g transform="translate(2,2) scale(1,1)"><g><path fill="none" stroke="none"/><text fill="#000000" stroke="none" font-family="Arial" font-size="13px" font-style="normal" font-weight="bold" text-decoration="none" x="70.5" y="98">Lifeline1: Usuario</text></g></g><g transform="translate(2,2) scale(1,1)"><path fill="none" stroke="#000000" d="M 126.5 105 L 126.5 528" stroke-miterlimit="10" stroke-dasharray="3"/></g><g transform="translate(2,2) scale(1,1)"><rect fill="#C0C0C0" stroke="none" x="383" y="47" width="151.1962890625" height="39" opacity="0.2"/></g><g transform="translate(2,2) scale(1,1)"><rect fill="#ffffff" stroke="none" x="376" y="40" width="151.1962890625" height="39"/></g><g transform="translate(2,2) scale(1,1)"><path fill="none" stroke="#000000" d="M 376 40 L 527.1962890625 40 L 527.1962890625 79 L 376 79 L 376 40 Z Z" stroke-miterlimit="10"/></g><g transform="translate(2,2) scale(1,1)"><g><path fill="none" stroke="none"/><text fill="#000000" stroke="none" font-family="Arial" font-size="13px" font-style="normal" font-weight="bold" text-decoration="none" x="385.5" y="58">Lifeline2: Decantador</text></g></g><g transform="translate(2,2) scale(1,1)"><path fill="none" stroke="#000000" d="M 452.5 80 L 452.5 520" stroke-miterlimit="10" stroke-dasharray="3"/></g><g transform="translate(2,2) scale(1,1)"><path fill="none" stroke="#000000" d="M 452 112 L 482 112 L 482 132 L 458 132" stroke-miterlimit="10"/></g><g transform="translate(2,2) scale(1,1)"><path fill="#000000" stroke="none" d="M 468.16267485762415 127.79048224398402 L 458 132 L 468.16267485762415 136.209517756016"/></g><g transform="translate(2,2) scale(1,1)"><path fill="none" stroke="#000000" d="M 468.16267485762415 127.79048224398402 L 458 132 L 468.16267485762415 136.209517756016 L 468.16267485762415 127.79048224398402" stroke-miterlimit="10"/></g><g transform="translate(2,2) scale(1,1)"><g><path fill="none" stroke="none"/><text fill="#000000" stroke="none" font-family="Arial" font-size="13px" font-style="normal" font-weight="normal" text-decoration="none" x="418.5" y="126">1 : receberSolucao():void</text></g></g><g transform="translate(2,2) scale(1,1)"><rect fill="#ffffff" stroke="none" x="445" y="132" width="13" height="372"/></g><g transform="translate(2,2) scale(1,1)"><path fill="none" stroke="#000000" d="M 445 132 L 458 132 L 458 504 L 445 504 L 445 132 Z Z" stroke-miterlimit="10"/></g><g transform="translate(2,2) scale(1,1)"><path fill="none" stroke="#000000" d="M 458 192 L 488 192 L 488 212 L 465 212" stroke-miterlimit="10"/></g><g transform="translate(2,2) scale(1,1)"><path fill="#000000" stroke="none" d="M 475.16267485762415 207.790482243984 L 465 212 L 475.16267485762415 216.209517756016"/></g><g transform="translate(2,2) scale(1,1)"><path fill="none" stroke="#000000" d="M 475.16267485762415 207.790482243984 L 465 212 L 475.16267485762415 216.209517756016 L 475.16267485762415 207.790482243984" stroke-miterlimit="10"/></g><g transform="translate(2,2) scale(1,1)"><g><path fill="none" stroke="none"/><text fill="#000000" stroke="none" font-family="Arial" font-size="13px" font-style="normal" font-weight="normal" text-decoration="none" x="407.5" y="206">2 : enviarProdDecantado():void</text></g></g><g transform="translate(2,2) scale(1,1)"><rect fill="#ffffff" stroke="none" x="452" y="212" width="13" height="28"/></g><g transform="translate(2,2) scale(1,1)"><path fill="none" stroke="#000000" d="M 452 212 L 465 212 L 465 240 L 452 240 L 452 212 Z Z" stroke-miterlimit="10"/></g><g transform="translate(2,2) scale(1,1)"><path fill="none" stroke="#000000" d="M 445 352 L 126 352" stroke-miterlimit="10" stroke-dasharray="3"/></g><g transform="translate(2,2) scale(1,1)"><path fill="none" stroke="#000000" d="M 136.16267485762415 347.790482243984 L 126 352 L 136.16267485762415 356.209517756016" stroke-miterlimit="10"/></g><g transform="translate(2,2) scale(1,1)"><g><path fill="none" stroke="none"/><text fill="#000000" stroke="none" font-family="Arial" font-size="13px" font-style="normal" font-weight="normal" text-decoration="none" x="217.5" y="367">3 : Armazena Glicerina</text></g></g><g transform="translate(2,2) scale(1,1)"><path fill="none" stroke="#000000" d="M 445 480 L 126 480" stroke-miterlimit="10" stroke-dasharray="3"/></g><g transform="translate(2,2) scale(1,1)"><path fill="none" stroke="#000000" d="M 136.16267485762415 475.790482243984 L 126 480 L 136.16267485762415 484.209517756016" stroke-miterlimit="10"/></g><g transform="translate(2,2) scale(1,1)"><g><path fill="none" stroke="none"/><text fill="#000000" stroke="none" font-family="Arial" font-size="13px" font-style="normal" font-weight="normal" text-decoration="none" x="274.5" y="495">4 : </text></g></g><g transform="translate(2,2) scale(1,1)"><path fill="none" stroke="#000000" d="M 96 248 L 607 248 L 607 575 L 96 575 L 96 248" stroke-miterlimit="10"/></g><g transform="translate(2,2) scale(1,1)"><path fill="#ffffff" stroke="none" d="M 96 248 L 96 270 L 242.8251953125 270 L 253.8251953125 259 L 253.8251953125 248 L 96 248"/></g><g transform="translate(2,2) scale(1,1)"><path fill="none" stroke="#000000" d="M 96 248 L 96 270 L 242.8251953125 270 L 253.8251953125 259 L 253.8251953125 248 L 96 248 L 96 248" stroke-miterlimit="10"/></g><g transform="translate(2,2) scale(1,1)"><g><path fill="none" stroke="none"/><text fill="#000000" stroke="none" font-family="Arial" font-size="13px" font-style="normal" font-weight="normal" text-decoration="none" x="127.9599609375" y="264">Produto dacantado</text></g></g><g transform="translate(2,2) scale(1,1)"><g><path fill="none" stroke="none"/><text fill="#000000" stroke="none" font-family="Arial" font-size="13px" font-style="normal" font-weight="bold" text-decoration="none" x="100.279541015625" y="262.5">seq</text></g></g><g transform="translate(2,2) scale(1,1)"><g><path fill="none" stroke="none"/><text fill="#000000" stroke="none" font-family="Arial" font-size="13px" font-style="normal" font-weight="normal" text-decoration="none" x="115.5" y="297">[if enviarProdDecantado(adciononarGlireina)]</text></g></g><g transform="translate(2,2) scale(1,1)"><path fill="none" stroke="#000000" d="M 96 417 L 607 417" stroke-miterlimit="10" stroke-dasharray="10,3"/></g><g transform="translate(2,2) scale(1,1)"><g><path fill="none" stroke="none"/><text fill="#000000" stroke="none" font-family="Arial" font-size="13px" font-style="normal" font-weight="normal" text-decoration="none" x="115.5" y="443">[else continua]</text></g></g></g></svg>