<svg version="1.1" xmlns="http://www.w3.org/2000/svg" xmlns:xlink="http://www.w3.org/1999/xlink" width="1053" height="61"><defs/><g><text fill="#eeeeee" stroke="none" font-family="Arial" font-size="24px" font-style="normal" font-weight="normal" text-decoration="none" x="0" y="0">UNREGISTERED</text><text fill="#eeeeee" stroke="none" font-family="Arial" font-size="24px" font-style="normal" font-weight="normal" text-decoration="none" x="0" y="30">UNREGISTERED</text><text fill="#eeeeee" stroke="none" font-family="Arial" font-size="24px" font-style="normal" font-weight="normal" text-decoration="none" x="0" y="60">UNREGISTERED</text><text fill="#eeeeee" stroke="none" font-family="Arial" font-size="24px" font-style="normal" font-weight="normal" text-decoration="none" x="200" y="0">UNREGISTERED</text><text fill="#eeeeee" stroke="none" font-family="Arial" font-size="24px" font-style="normal" font-weight="normal" text-decoration="none" x="200" y="30">UNREGISTERED</text><text fill="#eeeeee" stroke="none" font-family="Arial" font-size="24px" font-style="normal" font-weight="normal" text-decoration="none" x="200" y="60">UNREGISTERED</text><text fill="#eeeeee" stroke="none" font-family="Arial" font-size="24px" font-style="normal" font-weight="normal" text-decoration="none" x="400" y="0">UNREGISTERED</text><text fill="#eeeeee" stroke="none" font-family="Arial" font-size="24px" font-style="normal" font-weight="normal" text-decoration="none" x="400" y="30">UNREGISTERED</text><text fill="#eeeeee" stroke="none" font-family="Arial" font-size="24px" font-style="normal" font-weight="normal" text-decoration="none" x="400" y="60">UNREGISTERED</text><text fill="#eeeeee" stroke="none" font-family="Arial" font-size="24px" font-style="normal" font-weight="normal" text-decoration="none" x="600" y="0">UNREGISTERED</text><text fill="#eeeeee" stroke="none" font-family="Arial" font-size="24px" font-style="normal" font-weight="normal" text-decoration="none" x="600" y="30">UNREGISTERED</text><text fill="#eeeeee" stroke="none" font-family="Arial" font-size="24px" font-style="normal" font-weight="normal" text-decoration="none" x="600" y="60">UNREGISTERED</text><text fill="#eeeeee" stroke="none" font-family="Arial" font-size="24px" font-style="normal" font-weight="normal" text-decoration="none" x="800" y="0">UNREGISTERED</text><text fill="#eeeeee" stroke="none" font-family="Arial" font-size="24px" font-style="normal" font-weight="normal" text-decoration="none" x="800" y="30">UNREGISTERED</text><text fill="#eeeeee" stroke="none" font-family="Arial" font-size="24px" font-style="normal" font-weight="normal" text-decoration="none" x="800" y="60">UNREGISTERED</text><text fill="#eeeeee" stroke="none" font-family="Arial" font-size="24px" font-style="normal" font-weight="normal" text-decoration="none" x="1000" y="0">UNREGISTERED</text><text fill="#eeeeee" stroke="none" font-family="Arial" font-size="24px" font-style="normal" font-weight="normal" text-decoration="none" x="1000" y="30">UNREGISTERED</text><text fill="#eeeeee" stroke="none" font-family="Arial" font-size="24px" font-style="normal" font-weight="normal" text-decoration="none" x="1000" y="60">UNREGISTERED</text><g transform="translate(-198,-372) scale(1,1)"><path fill="#C0C0C0" stroke="none" d="M 215 408.5 C 215 403.2532944 219.2532944 399 224.5 399 C 229.7467056 399 234 403.2532944 234 408.5 C 234 413.7467056 229.7467056 418 224.5 418 C 219.2532944 418 215 413.7467056 215 408.5 Z" opacity="0.2"/></g><g transform="translate(-198,-372) scale(1,1)"><path fill="#000000" stroke="none" d="M 208 401.5 C 208 396.2532944 212.2532944 392 217.5 392 C 222.7467056 392 227 396.2532944 227 401.5 C 227 406.7467056 222.7467056 411 217.5 411 C 212.2532944 411 208 406.7467056 208 401.5 Z"/></g><g transform="translate(-198,-372) scale(1,1)"><path fill="#C0C0C0" stroke="none" d="M 649 391 L 854.48681640625 391 Q 864.48681640625 391 864.48681640625 401 L 864.48681640625 420 Q 864.48681640625 430 854.48681640625 430 L 649 430 Q 639 430 639 420 L 639 401 Q 639 391 649 391 Z" opacity="0.2"/></g><g transform="translate(-198,-372) scale(1,1)"><path fill="#ffffff" stroke="none" d="M 642 384 L 847.48681640625 384 Q 857.48681640625 384 857.48681640625 394 L 857.48681640625 413 Q 857.48681640625 423 847.48681640625 423 L 642 423 Q 632 423 632 413 L 632 394 Q 632 384 642 384 Z"/></g><g transform="translate(-198,-372) scale(1,1)"><path fill="none" stroke="#000000" d="M 642 384 L 847.48681640625 384 Q 857.48681640625 384 857.48681640625 394 L 857.48681640625 413 Q 857.48681640625 423 847.48681640625 423 L 642 423 Q 632 423 632 413 L 632 394 Q 632 384 642 384 Z" stroke-miterlimit="10"/></g><g transform="translate(-198,-372) scale(1,1)"><g><path fill="none" stroke="none"/><text fill="#000000" stroke="none" font-family="Arial" font-size="13px" font-style="normal" font-weight="bold" text-decoration="none" x="636.5" y="402">Tanque de Biodisel recebe solução</text></g></g><g transform="translate(-198,-372) scale(1,1)"><path fill="none" stroke="#000000" d="M 227 403 L 632 403" stroke-miterlimit="10"/></g><g transform="translate(-198,-372) scale(1,1)"><path fill="none" stroke="#000000" d="M 621.8373251423759 407.209517756016 L 632 403 L 621.8373251423758 398.790482243984" stroke-miterlimit="10"/></g><g transform="translate(-198,-372) scale(1,1)"><g><path fill="none" stroke="none"/><text fill="#000000" stroke="none" font-family="Arial" font-size="13px" font-style="normal" font-weight="normal" text-decoration="none" x="349.5" y="393"> [Envia solução do secador]</text></g></g><g transform="translate(-198,-372) scale(1,1)"><path fill="#C0C0C0" stroke="none" d="M 1223 411.5 C 1223 404.59644 1228.59644 399 1235.5 399 C 1242.40356 399 1248 404.59644 1248 411.5 C 1248 418.40356 1242.40356 424 1235.5 424 C 1228.59644 424 1223 418.40356 1223 411.5 Z" opacity="0.2"/></g><g transform="translate(-198,-372) scale(1,1)"><path fill="none" stroke="#000000" d="M 1216 404.5 C 1216 397.59644 1221.59644 392 1228.5 392 C 1235.40356 392 1241 397.59644 1241 404.5 C 1241 411.40356 1235.40356 417 1228.5 417 C 1221.59644 417 1216 411.40356 1216 404.5 Z" stroke-miterlimit="10"/></g><g transform="translate(-198,-372) scale(1,1)"><path fill="#000000" stroke="none" d="M 1221 404.5 C 1221 400.357864 1224.357864 397 1228.5 397 C 1232.642136 397 1236 400.357864 1236 404.5 C 1236 408.642136 1232.642136 412 1228.5 412 C 1224.357864 412 1221 408.642136 1221 404.5 Z"/></g><g transform="translate(-198,-372) scale(1,1)"><path fill="none" stroke="#000000" d="M 857 404 L 1216 404" stroke-miterlimit="10"/></g><g transform="translate(-198,-372) scale(1,1)"><path fill="none" stroke="#000000" d="M 1205.837325142376 408.209517756016 L 1216 404 L 1205.837325142376 399.790482243984" stroke-miterlimit="10"/></g><g transform="translate(-198,-372) scale(1,1)"><g><path fill="none" stroke="none"/><text fill="#000000" stroke="none" font-family="Arial" font-size="13px" font-style="normal" font-weight="normal" text-decoration="none" x="976.5" y="394"> [Armazena Biodisel]</text></g></g></g></svg>