<svg version="1.1" xmlns="http://www.w3.org/2000/svg" xmlns:xlink="http://www.w3.org/1999/xlink" width="989.5478515625" height="296"><defs/><g><text fill="#eeeeee" stroke="none" font-family="Arial" font-size="24px" font-style="normal" font-weight="normal" text-decoration="none" x="0" y="0">UNREGISTERED</text><text fill="#eeeeee" stroke="none" font-family="Arial" font-size="24px" font-style="normal" font-weight="normal" text-decoration="none" x="0" y="30">UNREGISTERED</text><text fill="#eeeeee" stroke="none" font-family="Arial" font-size="24px" font-style="normal" font-weight="normal" text-decoration="none" x="0" y="60">UNREGISTERED</text><text fill="#eeeeee" stroke="none" font-family="Arial" font-size="24px" font-style="normal" font-weight="normal" text-decoration="none" x="0" y="90">UNREGISTERED</text><text fill="#eeeeee" stroke="none" font-family="Arial" font-size="24px" font-style="normal" font-weight="normal" text-decoration="none" x="0" y="120">UNREGISTERED</text><text fill="#eeeeee" stroke="none" font-family="Arial" font-size="24px" font-style="normal" font-weight="normal" text-decoration="none" x="0" y="150">UNREGISTERED</text><text fill="#eeeeee" stroke="none" font-family="Arial" font-size="24px" font-style="normal" font-weight="normal" text-decoration="none" x="0" y="180">UNREGISTERED</text><text fill="#eeeeee" stroke="none" font-family="Arial" font-size="24px" font-style="normal" font-weight="normal" text-decoration="none" x="0" y="210">UNREGISTERED</text><text fill="#eeeeee" stroke="none" font-family="Arial" font-size="24px" font-style="normal" font-weight="normal" text-decoration="none" x="0" y="240">UNREGISTERED</text><text fill="#eeeeee" stroke="none" font-family="Arial" font-size="24px" font-style="normal" font-weight="normal" text-decoration="none" x="0" y="270">UNREGISTERED</text><text fill="#eeeeee" stroke="none" font-family="Arial" font-size="24px" font-style="normal" font-weight="normal" text-decoration="none" x="200" y="0">UNREGISTERED</text><text fill="#eeeeee" stroke="none" font-family="Arial" font-size="24px" font-style="normal" font-weight="normal" text-decoration="none" x="200" y="30">UNREGISTERED</text><text fill="#eeeeee" stroke="none" font-family="Arial" font-size="24px" font-style="normal" font-weight="normal" text-decoration="none" x="200" y="60">UNREGISTERED</text><text fill="#eeeeee" stroke="none" font-family="Arial" font-size="24px" font-style="normal" font-weight="normal" text-decoration="none" x="200" y="90">UNREGISTERED</text><text fill="#eeeeee" stroke="none" font-family="Arial" font-size="24px" font-style="normal" font-weight="normal" text-decoration="none" x="200" y="120">UNREGISTERED</text><text fill="#eeeeee" stroke="none" font-family="Arial" font-size="24px" font-style="normal" font-weight="normal" text-decoration="none" x="200" y="150">UNREGISTERED</text><text fill="#eeeeee" stroke="none" font-family="Arial" font-size="24px" font-style="normal" font-weight="normal" text-decoration="none" x="200" y="180">UNREGISTERED</text><text fill="#eeeeee" stroke="none" font-family="Arial" font-size="24px" font-style="normal" font-weight="normal" text-decoration="none" x="200" y="210">UNREGISTERED</text><text fill="#eeeeee" stroke="none" font-family="Arial" font-size="24px" font-style="normal" font-weight="normal" text-decoration="none" x="200" y="240">UNREGISTERED</text><text fill="#eeeeee" stroke="none" font-family="Arial" font-size="24px" font-style="normal" font-weight="normal" text-decoration="none" x="200" y="270">UNREGISTERED</text><text fill="#eeeeee" stroke="none" font-family="Arial" font-size="24px" font-style="normal" font-weight="normal" text-decoration="none" x="400" y="0">UNREGISTERED</text><text fill="#eeeeee" stroke="none" font-family="Arial" font-size="24px" font-style="normal" font-weight="normal" text-decoration="none" x="400" y="30">UNREGISTERED</text><text fill="#eeeeee" stroke="none" font-family="Arial" font-size="24px" font-style="normal" font-weight="normal" text-decoration="none" x="400" y="60">UNREGISTERED</text><text fill="#eeeeee" stroke="none" font-family="Arial" font-size="24px" font-style="normal" font-weight="normal" text-decoration="none" x="400" y="90">UNREGISTERED</text><text fill="#eeeeee" stroke="none" font-family="Arial" font-size="24px" font-style="normal" font-weight="normal" text-decoration="none" x="400" y="120">UNREGISTERED</text><text fill="#eeeeee" stroke="none" font-family="Arial" font-size="24px" font-style="normal" font-weight="normal" text-decoration="none" x="400" y="150">UNREGISTERED</text><text fill="#eeeeee" stroke="none" font-family="Arial" font-size="24px" font-style="normal" font-weight="normal" text-decoration="none" x="400" y="180">UNREGISTERED</text><text fill="#eeeeee" stroke="none" font-family="Arial" font-size="24px" font-style="normal" font-weight="normal" text-decoration="none" x="400" y="210">UNREGISTERED</text><text fill="#eeeeee" stroke="none" font-family="Arial" font-size="24px" font-style="normal" font-weight="normal" text-decoration="none" x="400" y="240">UNREGISTERED</text><text fill="#eeeeee" stroke="none" font-family="Arial" font-size="24px" font-style="normal" font-weight="normal" text-decoration="none" x="400" y="270">UNREGISTERED</text><text fill="#eeeeee" stroke="none" font-family="Arial" font-size="24px" font-style="normal" font-weight="normal" text-decoration="none" x="600" y="0">UNREGISTERED</text><text fill="#eeeeee" stroke="none" font-family="Arial" font-size="24px" font-style="normal" font-weight="normal" text-decoration="none" x="600" y="30">UNREGISTERED</text><text fill="#eeeeee" stroke="none" font-family="Arial" font-size="24px" font-style="normal" font-weight="normal" text-decoration="none" x="600" y="60">UNREGISTERED</text><text fill="#eeeeee" stroke="none" font-family="Arial" font-size="24px" font-style="normal" font-weight="normal" text-decoration="none" x="600" y="90">UNREGISTERED</text><text fill="#eeeeee" stroke="none" font-family="Arial" font-size="24px" font-style="normal" font-weight="normal" text-decoration="none" x="600" y="120">UNREGISTERED</text><text fill="#eeeeee" stroke="none" font-family="Arial" font-size="24px" font-style="normal" font-weight="normal" text-decoration="none" x="600" y="150">UNREGISTERED</text><text fill="#eeeeee" stroke="none" font-family="Arial" font-size="24px" font-style="normal" font-weight="normal" text-decoration="none" x="600" y="180">UNREGISTERED</text><text fill="#eeeeee" stroke="none" font-family="Arial" font-size="24px" font-style="normal" font-weight="normal" text-decoration="none" x="600" y="210">UNREGISTERED</text><text fill="#eeeeee" stroke="none" font-family="Arial" font-size="24px" font-style="normal" font-weight="normal" text-decoration="none" x="600" y="240">UNREGISTERED</text><text fill="#eeeeee" stroke="none" font-family="Arial" font-size="24px" font-style="normal" font-weight="normal" text-decoration="none" x="600" y="270">UNREGISTERED</text><text fill="#eeeeee" stroke="none" font-family="Arial" font-size="24px" font-style="normal" font-weight="normal" text-decoration="none" x="800" y="0">UNREGISTERED</text><text fill="#eeeeee" stroke="none" font-family="Arial" font-size="24px" font-style="normal" font-weight="normal" text-decoration="none" x="800" y="30">UNREGISTERED</text><text fill="#eeeeee" stroke="none" font-family="Arial" font-size="24px" font-style="normal" font-weight="normal" text-decoration="none" x="800" y="60">UNREGISTERED</text><text fill="#eeeeee" stroke="none" font-family="Arial" font-size="24px" font-style="normal" font-weight="normal" text-decoration="none" x="800" y="90">UNREGISTERED</text><text fill="#eeeeee" stroke="none" font-family="Arial" font-size="24px" font-style="normal" font-weight="normal" text-decoration="none" x="800" y="120">UNREGISTERED</text><text fill="#eeeeee" stroke="none" font-family="Arial" font-size="24px" font-style="normal" font-weight="normal" text-decoration="none" x="800" y="150">UNREGISTERED</text><text fill="#eeeeee" stroke="none" font-family="Arial" font-size="24px" font-style="normal" font-weight="normal" text-decoration="none" x="800" y="180">UNREGISTERED</text><text fill="#eeeeee" stroke="none" font-family="Arial" font-size="24px" font-style="normal" font-weight="normal" text-decoration="none" x="800" y="210">UNREGISTERED</text><text fill="#eeeeee" stroke="none" font-family="Arial" font-size="24px" font-style="normal" font-weight="normal" text-decoration="none" x="800" y="240">UNREGISTERED</text><text fill="#eeeeee" stroke="none" font-family="Arial" font-size="24px" font-style="normal" font-weight="normal" text-decoration="none" x="800" y="270">UNREGISTERED</text><g transform="translate(-126,-331) scale(1,1)"><path fill="#C0C0C0" stroke="none" d="M 143 368.5 C 143 363.2532944 147.2532944 359 152.5 359 C 157.7467056 359 162 363.2532944 162 368.5 C 162 373.7467056 157.7467056 378 152.5 378 C 147.2532944 378 143 373.7467056 143 368.5 Z" opacity="0.2"/></g><g transform="translate(-126,-331) scale(1,1)"><path fill="#000000" stroke="none" d="M 136 361.5 C 136 356.2532944 140.2532944 352 145.5 352 C 150.7467056 352 155 356.2532944 155 361.5 C 155 366.7467056 150.7467056 371 145.5 371 C 140.2532944 371 136 366.7467056 136 361.5 Z"/></g><g transform="translate(-126,-331) scale(1,1)"><path fill="#C0C0C0" stroke="none" d="M 473 351 L 643.28271484375 351 Q 653.28271484375 351 653.28271484375 361 L 653.28271484375 380 Q 653.28271484375 390 643.28271484375 390 L 473 390 Q 463 390 463 380 L 463 361 Q 463 351 473 351 Z" opacity="0.2"/></g><g transform="translate(-126,-331) scale(1,1)"><path fill="#ffffff" stroke="none" d="M 466 344 L 636.28271484375 344 Q 646.28271484375 344 646.28271484375 354 L 646.28271484375 373 Q 646.28271484375 383 636.28271484375 383 L 466 383 Q 456 383 456 373 L 456 354 Q 456 344 466 344 Z"/></g><g transform="translate(-126,-331) scale(1,1)"><path fill="none" stroke="#000000" d="M 466 344 L 636.28271484375 344 Q 646.28271484375 344 646.28271484375 354 L 646.28271484375 373 Q 646.28271484375 383 636.28271484375 383 L 466 383 Q 456 383 456 373 L 456 354 Q 456 344 466 344 Z" stroke-miterlimit="10"/></g><g transform="translate(-126,-331) scale(1,1)"><g><path fill="none" stroke="none"/><text fill="#000000" stroke="none" font-family="Arial" font-size="13px" font-style="normal" font-weight="bold" text-decoration="none" x="460.5" y="362">Conteudo passa por um filtro</text></g></g><g transform="translate(-126,-331) scale(1,1)"><path fill="none" stroke="#000000" d="M 156 361 L 455 363" stroke-miterlimit="10"/></g><g transform="translate(-126,-331) scale(1,1)"><path fill="none" stroke="#000000" d="M 444.8093958055935 367.1414473500148 L 455 363 L 444.86570916462455 358.7226001748696" stroke-miterlimit="10"/></g><g transform="translate(-126,-331) scale(1,1)"><g><path fill="none" stroke="none"/><text fill="#000000" stroke="none" font-family="Arial" font-size="13px" font-style="normal" font-weight="normal" text-decoration="none" x="217.5" y="352"> [Usuario Inseriu oleo residual]</text></g></g><g transform="translate(-126,-331) scale(1,1)"><path fill="#C0C0C0" stroke="none" d="M 1017 351 L 1102.5478515625 351 Q 1112.5478515625 351 1112.5478515625 361 L 1112.5478515625 380 Q 1112.5478515625 390 1102.5478515625 390 L 1017 390 Q 1007 390 1007 380 L 1007 361 Q 1007 351 1017 351 Z" opacity="0.2"/></g><g transform="translate(-126,-331) scale(1,1)"><path fill="#ffffff" stroke="none" d="M 1010 344 L 1095.5478515625 344 Q 1105.5478515625 344 1105.5478515625 354 L 1105.5478515625 373 Q 1105.5478515625 383 1095.5478515625 383 L 1010 383 Q 1000 383 1000 373 L 1000 354 Q 1000 344 1010 344 Z"/></g><g transform="translate(-126,-331) scale(1,1)"><path fill="none" stroke="#000000" d="M 1010 344 L 1095.5478515625 344 Q 1105.5478515625 344 1105.5478515625 354 L 1105.5478515625 373 Q 1105.5478515625 383 1095.5478515625 383 L 1010 383 Q 1000 383 1000 373 L 1000 354 Q 1000 344 1010 344 Z" stroke-miterlimit="10"/></g><g transform="translate(-126,-331) scale(1,1)"><g><path fill="none" stroke="none"/><text fill="#000000" stroke="none" font-family="Arial" font-size="13px" font-style="normal" font-weight="bold" text-decoration="none" x="1004.5" y="362">Tanque de Oleo</text></g></g><g transform="translate(-126,-331) scale(1,1)"><path fill="none" stroke="#000000" d="M 647 363 L 999 363" stroke-miterlimit="10"/></g><g transform="translate(-126,-331) scale(1,1)"><path fill="none" stroke="#000000" d="M 988.8373251423759 367.209517756016 L 999 363 L 988.8373251423758 358.790482243984" stroke-miterlimit="10"/></g><g transform="translate(-126,-331) scale(1,1)"><g><path fill="none" stroke="none"/><text fill="#000000" stroke="none" font-family="Arial" font-size="13px" font-style="normal" font-weight="normal" text-decoration="none" x="709.5" y="353"> [Envia conteudo filtrado para o tanque]</text></g></g><g transform="translate(-126,-331) scale(1,1)"><path fill="#C0C0C0" stroke="none" d="M 1039 611.5 C 1039 604.59644 1044.59644 599 1051.5 599 C 1058.40356 599 1064 604.59644 1064 611.5 C 1064 618.40356 1058.40356 624 1051.5 624 C 1044.59644 624 1039 618.40356 1039 611.5 Z" opacity="0.2"/></g><g transform="translate(-126,-331) scale(1,1)"><path fill="none" stroke="#000000" d="M 1032 604.5 C 1032 597.59644 1037.59644 592 1044.5 592 C 1051.40356 592 1057 597.59644 1057 604.5 C 1057 611.40356 1051.40356 617 1044.5 617 C 1037.59644 617 1032 611.40356 1032 604.5 Z" stroke-miterlimit="10"/></g><g transform="translate(-126,-331) scale(1,1)"><path fill="#000000" stroke="none" d="M 1037 604.5 C 1037 600.357864 1040.357864 597 1044.5 597 C 1048.642136 597 1052 600.357864 1052 604.5 C 1052 608.642136 1048.642136 612 1044.5 612 C 1040.357864 612 1037 608.642136 1037 604.5 Z"/></g><g transform="translate(-126,-331) scale(1,1)"><path fill="none" stroke="#000000" d="M 1051 383 L 1051 592" stroke-miterlimit="10"/></g><g transform="translate(-126,-331) scale(1,1)"><path fill="none" stroke="#000000" d="M 1046.7904822439841 581.8373251423759 L 1051 592 L 1055.2095177560159 581.8373251423759" stroke-miterlimit="10"/></g><g transform="translate(-126,-331) scale(1,1)"><g><path fill="none" stroke="none"/><text fill="#000000" stroke="none" font-family="Arial" font-size="13px" font-style="normal" font-weight="normal" text-decoration="none" x="854.5" y="490"> [Envia conteudo para o reator]</text></g></g></g></svg>