<svg version="1.1" xmlns="http://www.w3.org/2000/svg" xmlns:xlink="http://www.w3.org/1999/xlink" width="973" height="312"><defs/><g><text fill="#eeeeee" stroke="none" font-family="Arial" font-size="24px" font-style="normal" font-weight="normal" text-decoration="none" x="0" y="0">UNREGISTERED</text><text fill="#eeeeee" stroke="none" font-family="Arial" font-size="24px" font-style="normal" font-weight="normal" text-decoration="none" x="0" y="30">UNREGISTERED</text><text fill="#eeeeee" stroke="none" font-family="Arial" font-size="24px" font-style="normal" font-weight="normal" text-decoration="none" x="0" y="60">UNREGISTERED</text><text fill="#eeeeee" stroke="none" font-family="Arial" font-size="24px" font-style="normal" font-weight="normal" text-decoration="none" x="0" y="90">UNREGISTERED</text><text fill="#eeeeee" stroke="none" font-family="Arial" font-size="24px" font-style="normal" font-weight="normal" text-decoration="none" x="0" y="120">UNREGISTERED</text><text fill="#eeeeee" stroke="none" font-family="Arial" font-size="24px" font-style="normal" font-weight="normal" text-decoration="none" x="0" y="150">UNREGISTERED</text><text fill="#eeeeee" stroke="none" font-family="Arial" font-size="24px" font-style="normal" font-weight="normal" text-decoration="none" x="0" y="180">UNREGISTERED</text><text fill="#eeeeee" stroke="none" font-family="Arial" font-size="24px" font-style="normal" font-weight="normal" text-decoration="none" x="0" y="210">UNREGISTERED</text><text fill="#eeeeee" stroke="none" font-family="Arial" font-size="24px" font-style="normal" font-weight="normal" text-decoration="none" x="0" y="240">UNREGISTERED</text><text fill="#eeeeee" stroke="none" font-family="Arial" font-size="24px" font-style="normal" font-weight="normal" text-decoration="none" x="0" y="270">UNREGISTERED</text><text fill="#eeeeee" stroke="none" font-family="Arial" font-size="24px" font-style="normal" font-weight="normal" text-decoration="none" x="0" y="300">UNREGISTERED</text><text fill="#eeeeee" stroke="none" font-family="Arial" font-size="24px" font-style="normal" font-weight="normal" text-decoration="none" x="200" y="0">UNREGISTERED</text><text fill="#eeeeee" stroke="none" font-family="Arial" font-size="24px" font-style="normal" font-weight="normal" text-decoration="none" x="200" y="30">UNREGISTERED</text><text fill="#eeeeee" stroke="none" font-family="Arial" font-size="24px" font-style="normal" font-weight="normal" text-decoration="none" x="200" y="60">UNREGISTERED</text><text fill="#eeeeee" stroke="none" font-family="Arial" font-size="24px" font-style="normal" font-weight="normal" text-decoration="none" x="200" y="90">UNREGISTERED</text><text fill="#eeeeee" stroke="none" font-family="Arial" font-size="24px" font-style="normal" font-weight="normal" text-decoration="none" x="200" y="120">UNREGISTERED</text><text fill="#eeeeee" stroke="none" font-family="Arial" font-size="24px" font-style="normal" font-weight="normal" text-decoration="none" x="200" y="150">UNREGISTERED</text><text fill="#eeeeee" stroke="none" font-family="Arial" font-size="24px" font-style="normal" font-weight="normal" text-decoration="none" x="200" y="180">UNREGISTERED</text><text fill="#eeeeee" stroke="none" font-family="Arial" font-size="24px" font-style="normal" font-weight="normal" text-decoration="none" x="200" y="210">UNREGISTERED</text><text fill="#eeeeee" stroke="none" font-family="Arial" font-size="24px" font-style="normal" font-weight="normal" text-decoration="none" x="200" y="240">UNREGISTERED</text><text fill="#eeeeee" stroke="none" font-family="Arial" font-size="24px" font-style="normal" font-weight="normal" text-decoration="none" x="200" y="270">UNREGISTERED</text><text fill="#eeeeee" stroke="none" font-family="Arial" font-size="24px" font-style="normal" font-weight="normal" text-decoration="none" x="200" y="300">UNREGISTERED</text><text fill="#eeeeee" stroke="none" font-family="Arial" font-size="24px" font-style="normal" font-weight="normal" text-decoration="none" x="400" y="0">UNREGISTERED</text><text fill="#eeeeee" stroke="none" font-family="Arial" font-size="24px" font-style="normal" font-weight="normal" text-decoration="none" x="400" y="30">UNREGISTERED</text><text fill="#eeeeee" stroke="none" font-family="Arial" font-size="24px" font-style="normal" font-weight="normal" text-decoration="none" x="400" y="60">UNREGISTERED</text><text fill="#eeeeee" stroke="none" font-family="Arial" font-size="24px" font-style="normal" font-weight="normal" text-decoration="none" x="400" y="90">UNREGISTERED</text><text fill="#eeeeee" stroke="none" font-family="Arial" font-size="24px" font-style="normal" font-weight="normal" text-decoration="none" x="400" y="120">UNREGISTERED</text><text fill="#eeeeee" stroke="none" font-family="Arial" font-size="24px" font-style="normal" font-weight="normal" text-decoration="none" x="400" y="150">UNREGISTERED</text><text fill="#eeeeee" stroke="none" font-family="Arial" font-size="24px" font-style="normal" font-weight="normal" text-decoration="none" x="400" y="180">UNREGISTERED</text><text fill="#eeeeee" stroke="none" font-family="Arial" font-size="24px" font-style="normal" font-weight="normal" text-decoration="none" x="400" y="210">UNREGISTERED</text><text fill="#eeeeee" stroke="none" font-family="Arial" font-size="24px" font-style="normal" font-weight="normal" text-decoration="none" x="400" y="240">UNREGISTERED</text><text fill="#eeeeee" stroke="none" font-family="Arial" font-size="24px" font-style="normal" font-weight="normal" text-decoration="none" x="400" y="270">UNREGISTERED</text><text fill="#eeeeee" stroke="none" font-family="Arial" font-size="24px" font-style="normal" font-weight="normal" text-decoration="none" x="400" y="300">UNREGISTERED</text><text fill="#eeeeee" stroke="none" font-family="Arial" font-size="24px" font-style="normal" font-weight="normal" text-decoration="none" x="600" y="0">UNREGISTERED</text><text fill="#eeeeee" stroke="none" font-family="Arial" font-size="24px" font-style="normal" font-weight="normal" text-decoration="none" x="600" y="30">UNREGISTERED</text><text fill="#eeeeee" stroke="none" font-family="Arial" font-size="24px" font-style="normal" font-weight="normal" text-decoration="none" x="600" y="60">UNREGISTERED</text><text fill="#eeeeee" stroke="none" font-family="Arial" font-size="24px" font-style="normal" font-weight="normal" text-decoration="none" x="600" y="90">UNREGISTERED</text><text fill="#eeeeee" stroke="none" font-family="Arial" font-size="24px" font-style="normal" font-weight="normal" text-decoration="none" x="600" y="120">UNREGISTERED</text><text fill="#eeeeee" stroke="none" font-family="Arial" font-size="24px" font-style="normal" font-weight="normal" text-decoration="none" x="600" y="150">UNREGISTERED</text><text fill="#eeeeee" stroke="none" font-family="Arial" font-size="24px" font-style="normal" font-weight="normal" text-decoration="none" x="600" y="180">UNREGISTERED</text><text fill="#eeeeee" stroke="none" font-family="Arial" font-size="24px" font-style="normal" font-weight="normal" text-decoration="none" x="600" y="210">UNREGISTERED</text><text fill="#eeeeee" stroke="none" font-family="Arial" font-size="24px" font-style="normal" font-weight="normal" text-decoration="none" x="600" y="240">UNREGISTERED</text><text fill="#eeeeee" stroke="none" font-family="Arial" font-size="24px" font-style="normal" font-weight="normal" text-decoration="none" x="600" y="270">UNREGISTERED</text><text fill="#eeeeee" stroke="none" font-family="Arial" font-size="24px" font-style="normal" font-weight="normal" text-decoration="none" x="600" y="300">UNREGISTERED</text><text fill="#eeeeee" stroke="none" font-family="Arial" font-size="24px" font-style="normal" font-weight="normal" text-decoration="none" x="800" y="0">UNREGISTERED</text><text fill="#eeeeee" stroke="none" font-family="Arial" font-size="24px" font-style="normal" font-weight="normal" text-decoration="none" x="800" y="30">UNREGISTERED</text><text fill="#eeeeee" stroke="none" font-family="Arial" font-size="24px" font-style="normal" font-weight="normal" text-decoration="none" x="800" y="60">UNREGISTERED</text><text fill="#eeeeee" stroke="none" font-family="Arial" font-size="24px" font-style="normal" font-weight="normal" text-decoration="none" x="800" y="90">UNREGISTERED</text><text fill="#eeeeee" stroke="none" font-family="Arial" font-size="24px" font-style="normal" font-weight="normal" text-decoration="none" x="800" y="120">UNREGISTERED</text><text fill="#eeeeee" stroke="none" font-family="Arial" font-size="24px" font-style="normal" font-weight="normal" text-decoration="none" x="800" y="150">UNREGISTERED</text><text fill="#eeeeee" stroke="none" font-family="Arial" font-size="24px" font-style="normal" font-weight="normal" text-decoration="none" x="800" y="180">UNREGISTERED</text><text fill="#eeeeee" stroke="none" font-family="Arial" font-size="24px" font-style="normal" font-weight="normal" text-decoration="none" x="800" y="210">UNREGISTERED</text><text fill="#eeeeee" stroke="none" font-family="Arial" font-size="24px" font-style="normal" font-weight="normal" text-decoration="none" x="800" y="240">UNREGISTERED</text><text fill="#eeeeee" stroke="none" font-family="Arial" font-size="24px" font-style="normal" font-weight="normal" text-decoration="none" x="800" y="270">UNREGISTERED</text><text fill="#eeeeee" stroke="none" font-family="Arial" font-size="24px" font-style="normal" font-weight="normal" text-decoration="none" x="800" y="300">UNREGISTERED</text><g transform="translate(-126,-145) scale(1,1)"><path fill="#C0C0C0" stroke="none" d="M 143 440.5 C 143 435.2532944 147.2532944 431 152.5 431 C 157.7467056 431 162 435.2532944 162 440.5 C 162 445.7467056 157.7467056 450 152.5 450 C 147.2532944 450 143 445.7467056 143 440.5 Z" opacity="0.2"/></g><g transform="translate(-126,-145) scale(1,1)"><path fill="#000000" stroke="none" d="M 136 433.5 C 136 428.2532944 140.2532944 424 145.5 424 C 150.7467056 424 155 428.2532944 155 433.5 C 155 438.7467056 150.7467056 443 145.5 443 C 140.2532944 443 136 438.7467056 136 433.5 Z"/></g><g transform="translate(-126,-145) scale(1,1)"><path fill="#C0C0C0" stroke="none" d="M 665 415 L 807.89892578125 415 Q 817.89892578125 415 817.89892578125 425 L 817.89892578125 444 Q 817.89892578125 454 807.89892578125 454 L 665 454 Q 655 454 655 444 L 655 425 Q 655 415 665 415 Z" opacity="0.2"/></g><g transform="translate(-126,-145) scale(1,1)"><path fill="#ffffff" stroke="none" d="M 658 408 L 800.89892578125 408 Q 810.89892578125 408 810.89892578125 418 L 810.89892578125 437 Q 810.89892578125 447 800.89892578125 447 L 658 447 Q 648 447 648 437 L 648 418 Q 648 408 658 408 Z"/></g><g transform="translate(-126,-145) scale(1,1)"><path fill="none" stroke="#000000" d="M 658 408 L 800.89892578125 408 Q 810.89892578125 408 810.89892578125 418 L 810.89892578125 437 Q 810.89892578125 447 800.89892578125 447 L 658 447 Q 648 447 648 437 L 648 418 Q 648 408 658 408 Z" stroke-miterlimit="10"/></g><g transform="translate(-126,-145) scale(1,1)"><g><path fill="none" stroke="none"/><text fill="#000000" stroke="none" font-family="Arial" font-size="13px" font-style="normal" font-weight="bold" text-decoration="none" x="652.5" y="426">Secador Recebe solução</text></g></g><g transform="translate(-126,-145) scale(1,1)"><path fill="none" stroke="#000000" d="M 156 433 L 647 428" stroke-miterlimit="10"/></g><g transform="translate(-126,-145) scale(1,1)"><path fill="none" stroke="#000000" d="M 636.8807165911194 432.31278370553787 L 647 428 L 636.7949874768553 423.89418468480864" stroke-miterlimit="10"/></g><g transform="translate(-126,-145) scale(1,1)"><g><path fill="none" stroke="none"/><text fill="#000000" stroke="none" font-family="Arial" font-size="13px" font-style="normal" font-weight="normal" text-decoration="none" x="257.5" y="420"> [Recebe solução do decantador ou da Lavagem]</text></g></g><g transform="translate(-126,-145) scale(1,1)"><path fill="#C0C0C0" stroke="none" d="M 1071 435.5 C 1071 428.59644 1076.59644 423 1083.5 423 C 1090.40356 423 1096 428.59644 1096 435.5 C 1096 442.40356 1090.40356 448 1083.5 448 C 1076.59644 448 1071 442.40356 1071 435.5 Z" opacity="0.2"/></g><g transform="translate(-126,-145) scale(1,1)"><path fill="none" stroke="#000000" d="M 1064 428.5 C 1064 421.59644 1069.59644 416 1076.5 416 C 1083.40356 416 1089 421.59644 1089 428.5 C 1089 435.40356 1083.40356 441 1076.5 441 C 1069.59644 441 1064 435.40356 1064 428.5 Z" stroke-miterlimit="10"/></g><g transform="translate(-126,-145) scale(1,1)"><path fill="#000000" stroke="none" d="M 1069 428.5 C 1069 424.357864 1072.357864 421 1076.5 421 C 1080.642136 421 1084 424.357864 1084 428.5 C 1084 432.642136 1080.642136 436 1076.5 436 C 1072.357864 436 1069 432.642136 1069 428.5 Z"/></g><g transform="translate(-126,-145) scale(1,1)"><path fill="#C0C0C0" stroke="none" d="M 682 311 L 745 311 Q 748 311 748 314 L 748 313 Q 748 316 745 316 L 682 316 Q 679 316 679 313 L 679 314 Q 679 311 682 311 Z" opacity="0.2"/></g><g transform="translate(-126,-145) scale(1,1)"><path fill="#000000" stroke="none" d="M 675 304 L 738 304 Q 741 304 741 307 L 741 307 Q 741 310 738 310 L 675 310 Q 672 310 672 307 L 672 307 Q 672 304 675 304 Z"/></g><g transform="translate(-126,-145) scale(1,1)"><path fill="none" stroke="#000000" d="M 706 408 L 706 309" stroke-miterlimit="10"/></g><g transform="translate(-126,-145) scale(1,1)"><path fill="none" stroke="#000000" d="M 710.209517756016 319.16267485762415 L 706 309 L 701.790482243984 319.16267485762415" stroke-miterlimit="10"/></g><g transform="translate(-126,-145) scale(1,1)"><g><path fill="none" stroke="none"/><text fill="#000000" stroke="none" font-family="Arial" font-size="13px" font-style="normal" font-weight="normal" text-decoration="none" x="727.5" y="370"> [Realiza a secagem]</text></g></g><g transform="translate(-126,-145) scale(1,1)"><path fill="none" stroke="#000000" d="M 696 304 L 696 176 L 1080 176 L 1080 416" stroke-miterlimit="10"/></g><g transform="translate(-126,-145) scale(1,1)"><path fill="none" stroke="#000000" d="M 1075.7904822439841 405.83732514237585 L 1080 416 L 1084.2095177560159 405.83732514237585" stroke-miterlimit="10"/></g><g transform="translate(-126,-145) scale(1,1)"><g><path fill="none" stroke="none"/><text fill="#000000" stroke="none" font-family="Arial" font-size="13px" font-style="normal" font-weight="normal" text-decoration="none" x="797.5" y="166"> [Envia para o tanque de EtOH]</text></g></g><g transform="translate(-126,-145) scale(1,1)"><path fill="none" stroke="#000000" d="M 722 304 L 722 224 L 1000 224 L 1000 424 L 1064 424" stroke-miterlimit="10"/></g><g transform="translate(-126,-145) scale(1,1)"><path fill="none" stroke="#000000" d="M 1053.837325142376 428.209517756016 L 1064 424 L 1053.837325142376 419.790482243984" stroke-miterlimit="10"/></g><g transform="translate(-126,-145) scale(1,1)"><g><path fill="none" stroke="none"/><text fill="#000000" stroke="none" font-family="Arial" font-size="13px" font-style="normal" font-weight="normal" text-decoration="none" x="774.5" y="210"> [Envia para o tanque de biodisel]</text></g></g></g></svg>