<svg version="1.1" xmlns="http://www.w3.org/2000/svg" xmlns:xlink="http://www.w3.org/1999/xlink" width="801" height="374"><defs/><g><text fill="#eeeeee" stroke="none" font-family="Arial" font-size="24px" font-style="normal" font-weight="normal" text-decoration="none" x="0" y="0">UNREGISTERED</text><text fill="#eeeeee" stroke="none" font-family="Arial" font-size="24px" font-style="normal" font-weight="normal" text-decoration="none" x="0" y="30">UNREGISTERED</text><text fill="#eeeeee" stroke="none" font-family="Arial" font-size="24px" font-style="normal" font-weight="normal" text-decoration="none" x="0" y="60">UNREGISTERED</text><text fill="#eeeeee" stroke="none" font-family="Arial" font-size="24px" font-style="normal" font-weight="normal" text-decoration="none" x="0" y="90">UNREGISTERED</text><text fill="#eeeeee" stroke="none" font-family="Arial" font-size="24px" font-style="normal" font-weight="normal" text-decoration="none" x="0" y="120">UNREGISTERED</text><text fill="#eeeeee" stroke="none" font-family="Arial" font-size="24px" font-style="normal" font-weight="normal" text-decoration="none" x="0" y="150">UNREGISTERED</text><text fill="#eeeeee" stroke="none" font-family="Arial" font-size="24px" font-style="normal" font-weight="normal" text-decoration="none" x="0" y="180">UNREGISTERED</text><text fill="#eeeeee" stroke="none" font-family="Arial" font-size="24px" font-style="normal" font-weight="normal" text-decoration="none" x="0" y="210">UNREGISTERED</text><text fill="#eeeeee" stroke="none" font-family="Arial" font-size="24px" font-style="normal" font-weight="normal" text-decoration="none" x="0" y="240">UNREGISTERED</text><text fill="#eeeeee" stroke="none" font-family="Arial" font-size="24px" font-style="normal" font-weight="normal" text-decoration="none" x="0" y="270">UNREGISTERED</text><text fill="#eeeeee" stroke="none" font-family="Arial" font-size="24px" font-style="normal" font-weight="normal" text-decoration="none" x="0" y="300">UNREGISTERED</text><text fill="#eeeeee" stroke="none" font-family="Arial" font-size="24px" font-style="normal" font-weight="normal" text-decoration="none" x="0" y="330">UNREGISTERED</text><text fill="#eeeeee" stroke="none" font-family="Arial" font-size="24px" font-style="normal" font-weight="normal" text-decoration="none" x="0" y="360">UNREGISTERED</text><text fill="#eeeeee" stroke="none" font-family="Arial" font-size="24px" font-style="normal" font-weight="normal" text-decoration="none" x="200" y="0">UNREGISTERED</text><text fill="#eeeeee" stroke="none" font-family="Arial" font-size="24px" font-style="normal" font-weight="normal" text-decoration="none" x="200" y="30">UNREGISTERED</text><text fill="#eeeeee" stroke="none" font-family="Arial" font-size="24px" font-style="normal" font-weight="normal" text-decoration="none" x="200" y="60">UNREGISTERED</text><text fill="#eeeeee" stroke="none" font-family="Arial" font-size="24px" font-style="normal" font-weight="normal" text-decoration="none" x="200" y="90">UNREGISTERED</text><text fill="#eeeeee" stroke="none" font-family="Arial" font-size="24px" font-style="normal" font-weight="normal" text-decoration="none" x="200" y="120">UNREGISTERED</text><text fill="#eeeeee" stroke="none" font-family="Arial" font-size="24px" font-style="normal" font-weight="normal" text-decoration="none" x="200" y="150">UNREGISTERED</text><text fill="#eeeeee" stroke="none" font-family="Arial" font-size="24px" font-style="normal" font-weight="normal" text-decoration="none" x="200" y="180">UNREGISTERED</text><text fill="#eeeeee" stroke="none" font-family="Arial" font-size="24px" font-style="normal" font-weight="normal" text-decoration="none" x="200" y="210">UNREGISTERED</text><text fill="#eeeeee" stroke="none" font-family="Arial" font-size="24px" font-style="normal" font-weight="normal" text-decoration="none" x="200" y="240">UNREGISTERED</text><text fill="#eeeeee" stroke="none" font-family="Arial" font-size="24px" font-style="normal" font-weight="normal" text-decoration="none" x="200" y="270">UNREGISTERED</text><text fill="#eeeeee" stroke="none" font-family="Arial" font-size="24px" font-style="normal" font-weight="normal" text-decoration="none" x="200" y="300">UNREGISTERED</text><text fill="#eeeeee" stroke="none" font-family="Arial" font-size="24px" font-style="normal" font-weight="normal" text-decoration="none" x="200" y="330">UNREGISTERED</text><text fill="#eeeeee" stroke="none" font-family="Arial" font-size="24px" font-style="normal" font-weight="normal" text-decoration="none" x="200" y="360">UNREGISTERED</text><text fill="#eeeeee" stroke="none" font-family="Arial" font-size="24px" font-style="normal" font-weight="normal" text-decoration="none" x="400" y="0">UNREGISTERED</text><text fill="#eeeeee" stroke="none" font-family="Arial" font-size="24px" font-style="normal" font-weight="normal" text-decoration="none" x="400" y="30">UNREGISTERED</text><text fill="#eeeeee" stroke="none" font-family="Arial" font-size="24px" font-style="normal" font-weight="normal" text-decoration="none" x="400" y="60">UNREGISTERED</text><text fill="#eeeeee" stroke="none" font-family="Arial" font-size="24px" font-style="normal" font-weight="normal" text-decoration="none" x="400" y="90">UNREGISTERED</text><text fill="#eeeeee" stroke="none" font-family="Arial" font-size="24px" font-style="normal" font-weight="normal" text-decoration="none" x="400" y="120">UNREGISTERED</text><text fill="#eeeeee" stroke="none" font-family="Arial" font-size="24px" font-style="normal" font-weight="normal" text-decoration="none" x="400" y="150">UNREGISTERED</text><text fill="#eeeeee" stroke="none" font-family="Arial" font-size="24px" font-style="normal" font-weight="normal" text-decoration="none" x="400" y="180">UNREGISTERED</text><text fill="#eeeeee" stroke="none" font-family="Arial" font-size="24px" font-style="normal" font-weight="normal" text-decoration="none" x="400" y="210">UNREGISTERED</text><text fill="#eeeeee" stroke="none" font-family="Arial" font-size="24px" font-style="normal" font-weight="normal" text-decoration="none" x="400" y="240">UNREGISTERED</text><text fill="#eeeeee" stroke="none" font-family="Arial" font-size="24px" font-style="normal" font-weight="normal" text-decoration="none" x="400" y="270">UNREGISTERED</text><text fill="#eeeeee" stroke="none" font-family="Arial" font-size="24px" font-style="normal" font-weight="normal" text-decoration="none" x="400" y="300">UNREGISTERED</text><text fill="#eeeeee" stroke="none" font-family="Arial" font-size="24px" font-style="normal" font-weight="normal" text-decoration="none" x="400" y="330">UNREGISTERED</text><text fill="#eeeeee" stroke="none" font-family="Arial" font-size="24px" font-style="normal" font-weight="normal" text-decoration="none" x="400" y="360">UNREGISTERED</text><text fill="#eeeeee" stroke="none" font-family="Arial" font-size="24px" font-style="normal" font-weight="normal" text-decoration="none" x="600" y="0">UNREGISTERED</text><text fill="#eeeeee" stroke="none" font-family="Arial" font-size="24px" font-style="normal" font-weight="normal" text-decoration="none" x="600" y="30">UNREGISTERED</text><text fill="#eeeeee" stroke="none" font-family="Arial" font-size="24px" font-style="normal" font-weight="normal" text-decoration="none" x="600" y="60">UNREGISTERED</text><text fill="#eeeeee" stroke="none" font-family="Arial" font-size="24px" font-style="normal" font-weight="normal" text-decoration="none" x="600" y="90">UNREGISTERED</text><text fill="#eeeeee" stroke="none" font-family="Arial" font-size="24px" font-style="normal" font-weight="normal" text-decoration="none" x="600" y="120">UNREGISTERED</text><text fill="#eeeeee" stroke="none" font-family="Arial" font-size="24px" font-style="normal" font-weight="normal" text-decoration="none" x="600" y="150">UNREGISTERED</text><text fill="#eeeeee" stroke="none" font-family="Arial" font-size="24px" font-style="normal" font-weight="normal" text-decoration="none" x="600" y="180">UNREGISTERED</text><text fill="#eeeeee" stroke="none" font-family="Arial" font-size="24px" font-style="normal" font-weight="normal" text-decoration="none" x="600" y="210">UNREGISTERED</text><text fill="#eeeeee" stroke="none" font-family="Arial" font-size="24px" font-style="normal" font-weight="normal" text-decoration="none" x="600" y="240">UNREGISTERED</text><text fill="#eeeeee" stroke="none" font-family="Arial" font-size="24px" font-style="normal" font-weight="normal" text-decoration="none" x="600" y="270">UNREGISTERED</text><text fill="#eeeeee" stroke="none" font-family="Arial" font-size="24px" font-style="normal" font-weight="normal" text-decoration="none" x="600" y="300">UNREGISTERED</text><text fill="#eeeeee" stroke="none" font-family="Arial" font-size="24px" font-style="normal" font-weight="normal" text-decoration="none" x="600" y="330">UNREGISTERED</text><text fill="#eeeeee" stroke="none" font-family="Arial" font-size="24px" font-style="normal" font-weight="normal" text-decoration="none" x="600" y="360">UNREGISTERED</text><text fill="#eeeeee" stroke="none" font-family="Arial" font-size="24px" font-style="normal" font-weight="normal" text-decoration="none" x="800" y="0">UNREGISTERED</text><text fill="#eeeeee" stroke="none" font-family="Arial" font-size="24px" font-style="normal" font-weight="normal" text-decoration="none" x="800" y="30">UNREGISTERED</text><text fill="#eeeeee" stroke="none" font-family="Arial" font-size="24px" font-style="normal" font-weight="normal" text-decoration="none" x="800" y="60">UNREGISTERED</text><text fill="#eeeeee" stroke="none" font-family="Arial" font-size="24px" font-style="normal" font-weight="normal" text-decoration="none" x="800" y="90">UNREGISTERED</text><text fill="#eeeeee" stroke="none" font-family="Arial" font-size="24px" font-style="normal" font-weight="normal" text-decoration="none" x="800" y="120">UNREGISTERED</text><text fill="#eeeeee" stroke="none" font-family="Arial" font-size="24px" font-style="normal" font-weight="normal" text-decoration="none" x="800" y="150">UNREGISTERED</text><text fill="#eeeeee" stroke="none" font-family="Arial" font-size="24px" font-style="normal" font-weight="normal" text-decoration="none" x="800" y="180">UNREGISTERED</text><text fill="#eeeeee" stroke="none" font-family="Arial" font-size="24px" font-style="normal" font-weight="normal" text-decoration="none" x="800" y="210">UNREGISTERED</text><text fill="#eeeeee" stroke="none" font-family="Arial" font-size="24px" font-style="normal" font-weight="normal" text-decoration="none" x="800" y="240">UNREGISTERED</text><text fill="#eeeeee" stroke="none" font-family="Arial" font-size="24px" font-style="normal" font-weight="normal" text-decoration="none" x="800" y="270">UNREGISTERED</text><text fill="#eeeeee" stroke="none" font-family="Arial" font-size="24px" font-style="normal" font-weight="normal" text-decoration="none" x="800" y="300">UNREGISTERED</text><text fill="#eeeeee" stroke="none" font-family="Arial" font-size="24px" font-style="normal" font-weight="normal" text-decoration="none" x="800" y="330">UNREGISTERED</text><text fill="#eeeeee" stroke="none" font-family="Arial" font-size="24px" font-style="normal" font-weight="normal" text-decoration="none" x="800" y="360">UNREGISTERED</text><g transform="translate(-230,-230) scale(1,1)"><path fill="#ffffff" stroke="none" d="M 748.0211667258523 249.68 C 748.0211667258523 244.886167936 751.9070090507977 241 756.700439453125 241 C 761.4938698554523 241 765.3797121803977 244.886167936 765.3797121803977 249.68 C 765.3797121803977 254.47383206400002 761.4938698554523 258.36 756.700439453125 258.36 C 751.9070090507977 258.36 748.0211667258523 254.47383206400002 748.0211667258523 249.68 Z"/></g><g transform="translate(-230,-230) scale(1,1)"><path fill="none" stroke="#000000" d="M 748.0211667258523 249.68 C 748.0211667258523 244.886167936 751.9070090507977 241 756.700439453125 241 C 761.4938698554523 241 765.3797121803977 244.886167936 765.3797121803977 249.68 C 765.3797121803977 254.47383206400002 761.4938698554523 258.36 756.700439453125 258.36 C 751.9070090507977 258.36 748.0211667258523 254.47383206400002 748.0211667258523 249.68 Z" stroke-miterlimit="10"/></g><g transform="translate(-230,-230) scale(1,1)"><path fill="none" stroke="#000000" d="M 756.700439453125 258.36 L 756.700439453125 275.64" stroke-miterlimit="10"/></g><g transform="translate(-230,-230) scale(1,1)"><path fill="none" stroke="#000000" d="M 747.5106212713068 264.84 L 765.8902576349432 264.84" stroke-miterlimit="10"/></g><g transform="translate(-230,-230) scale(1,1)"><path fill="none" stroke="#000000" d="M 756.700439453125 275.64 L 743.9368030894886 293" stroke-miterlimit="10"/></g><g transform="translate(-230,-230) scale(1,1)"><path fill="none" stroke="#000000" d="M 756.700439453125 275.64 L 769.4640758167614 293" stroke-miterlimit="10"/></g><g transform="translate(-230,-230) scale(1,1)"><g><path fill="none" stroke="none"/><text fill="#000000" stroke="none" font-family="Arial" font-size="13px" font-style="normal" font-weight="bold" text-decoration="none" x="732.5" y="312">Usuario</text></g></g><g transform="translate(-230,-230) scale(1,1)"><path fill="#C0C0C0" stroke="none" d="M 407 584 C 407 574.6111584 440.3547824 567 481.5 567 C 522.6452176 567 556 574.6111584 556 584 C 556 593.3888416 522.6452176 601 481.5 601 C 440.3547824 601 407 593.3888416 407 584 Z" opacity="0.2"/></g><g transform="translate(-230,-230) scale(1,1)"><path fill="#ffffff" stroke="none" d="M 400 577 C 400 567.6111584 433.3547824 560 474.5 560 C 515.6452176 560 549 567.6111584 549 577 C 549 586.3888416 515.6452176 594 474.5 594 C 433.3547824 594 400 586.3888416 400 577 Z"/></g><g transform="translate(-230,-230) scale(1,1)"><path fill="none" stroke="#000000" d="M 400 577 C 400 567.6111584 433.3547824 560 474.5 560 C 515.6452176 560 549 567.6111584 549 577 C 549 586.3888416 515.6452176 594 474.5 594 C 433.3547824 594 400 586.3888416 400 577 Z" stroke-miterlimit="10"/></g><g transform="translate(-230,-230) scale(1,1)"><g><path fill="none" stroke="none"/><text fill="#000000" stroke="none" font-family="Arial" font-size="13px" font-style="normal" font-weight="bold" text-decoration="none" x="426.22607421875" y="584">Tanque de Óleo</text></g></g><g transform="translate(-230,-230) scale(1,1)"><path fill="#C0C0C0" stroke="none" d="M 607 584 C 607 574.6111584 629.6096176 567 657.5 567 C 685.3903824 567 708 574.6111584 708 584 C 708 593.3888416 685.3903824 601 657.5 601 C 629.6096176 601 607 593.3888416 607 584 Z" opacity="0.2"/></g><g transform="translate(-230,-230) scale(1,1)"><path fill="#ffffff" stroke="none" d="M 600 577 C 600 567.6111584 622.6096176 560 650.5 560 C 678.3903824 560 701 567.6111584 701 577 C 701 586.3888416 678.3903824 594 650.5 594 C 622.6096176 594 600 586.3888416 600 577 Z"/></g><g transform="translate(-230,-230) scale(1,1)"><path fill="none" stroke="#000000" d="M 600 577 C 600 567.6111584 622.6096176 560 650.5 560 C 678.3903824 560 701 567.6111584 701 577 C 701 586.3888416 678.3903824 594 650.5 594 C 622.6096176 594 600 586.3888416 600 577 Z" stroke-miterlimit="10"/></g><g transform="translate(-230,-230) scale(1,1)"><g><path fill="none" stroke="none"/><text fill="#000000" stroke="none" font-family="Arial" font-size="13px" font-style="normal" font-weight="bold" text-decoration="none" x="629.911376953125" y="582.5">Reator</text></g></g><g transform="translate(-230,-230) scale(1,1)"><path fill="none" stroke="#000000" d="M 727 310 L 491 559" stroke-miterlimit="10"/></g><g transform="translate(-230,-230) scale(1,1)"><path fill="none" stroke="#000000" d="M 494.93570259124334 548.7281819957088 L 491 559 L 501.04623415695 554.5196898250533" stroke-miterlimit="10"/></g><g transform="translate(-230,-230) scale(1,1)"><path fill="none" stroke="#000000" d="M 741 320 L 656 559" stroke-miterlimit="10"/></g><g transform="translate(-230,-230) scale(1,1)"><path fill="none" stroke="#000000" d="M 655.4392316406446 548.0143029876505 L 656 559 L 663.3715377439181 550.8354160369319" stroke-miterlimit="10"/></g><g transform="translate(-230,-230) scale(1,1)"><path fill="#C0C0C0" stroke="none" d="M 735 584 C 735 574.6111584 760.5197664 567 792 567 C 823.4802336 567 849 574.6111584 849 584 C 849 593.3888416 823.4802336 601 792 601 C 760.5197664 601 735 593.3888416 735 584 Z" opacity="0.2"/></g><g transform="translate(-230,-230) scale(1,1)"><path fill="#ffffff" stroke="none" d="M 728 577 C 728 567.6111584 753.5197664 560 785 560 C 816.4802336 560 842 567.6111584 842 577 C 842 586.3888416 816.4802336 594 785 594 C 753.5197664 594 728 586.3888416 728 577 Z"/></g><g transform="translate(-230,-230) scale(1,1)"><path fill="none" stroke="#000000" d="M 728 577 C 728 567.6111584 753.5197664 560 785 560 C 816.4802336 560 842 567.6111584 842 577 C 842 586.3888416 816.4802336 594 785 594 C 753.5197664 594 728 586.3888416 728 577 Z" stroke-miterlimit="10"/></g><g transform="translate(-230,-230) scale(1,1)"><g><path fill="none" stroke="none"/><text fill="#000000" stroke="none" font-family="Arial" font-size="13px" font-style="normal" font-weight="bold" text-decoration="none" x="749.240478515625" y="582.5">Decantador</text></g></g><g transform="translate(-230,-230) scale(1,1)"><path fill="none" stroke="#000000" d="M 760 320 L 783 559" stroke-miterlimit="10"/></g><g transform="translate(-230,-230) scale(1,1)"><path fill="none" stroke="#000000" d="M 777.8363395800145 549.2872964079472 L 783 559 L 786.2166592748792 548.4808221276883" stroke-miterlimit="10"/></g><g transform="translate(-230,-230) scale(1,1)"><path fill="#C0C0C0" stroke="none" d="M 927 576 C 927 566.6111584 949.6096176 559 977.5 559 C 1005.3903824 559 1028 566.6111584 1028 576 C 1028 585.3888416 1005.3903824 593 977.5 593 C 949.6096176 593 927 585.3888416 927 576 Z" opacity="0.2"/></g><g transform="translate(-230,-230) scale(1,1)"><path fill="#ffffff" stroke="none" d="M 920 569 C 920 559.6111584 942.6096176 552 970.5 552 C 998.3903824 552 1021 559.6111584 1021 569 C 1021 578.3888416 998.3903824 586 970.5 586 C 942.6096176 586 920 578.3888416 920 569 Z"/></g><g transform="translate(-230,-230) scale(1,1)"><path fill="none" stroke="#000000" d="M 920 569 C 920 559.6111584 942.6096176 552 970.5 552 C 998.3903824 552 1021 559.6111584 1021 569 C 1021 578.3888416 998.3903824 586 970.5 586 C 942.6096176 586 920 578.3888416 920 569 Z" stroke-miterlimit="10"/></g><g transform="translate(-230,-230) scale(1,1)"><g><path fill="none" stroke="none"/><text fill="#000000" stroke="none" font-family="Arial" font-size="13px" font-style="normal" font-weight="bold" text-decoration="none" x="942.319580078125" y="574.5">Lavagem</text></g></g><g transform="translate(-230,-230) scale(1,1)"><path fill="none" stroke="#000000" d="M 786 320 L 957 551" stroke-miterlimit="10"/></g><g transform="translate(-230,-230) scale(1,1)"><path fill="none" stroke="#000000" d="M 947.5700666363891 545.3364007241103 L 957 551 L 954.3367996263584 540.3272607185486" stroke-miterlimit="10"/></g><g transform="translate(-230,-230) scale(1,1)"><path fill="#C0C0C0" stroke="none" d="M 247 576 C 247 566.6111584 270.7289056 559 300 559 C 329.2710944 559 353 566.6111584 353 576 C 353 585.3888416 329.2710944 593 300 593 C 270.7289056 593 247 585.3888416 247 576 Z" opacity="0.2"/></g><g transform="translate(-230,-230) scale(1,1)"><path fill="#ffffff" stroke="none" d="M 240 569 C 240 559.6111584 263.7289056 552 293 552 C 322.2710944 552 346 559.6111584 346 569 C 346 578.3888416 322.2710944 586 293 586 C 263.7289056 586 240 578.3888416 240 569 Z"/></g><g transform="translate(-230,-230) scale(1,1)"><path fill="none" stroke="#000000" d="M 240 569 C 240 559.6111584 263.7289056 552 293 552 C 322.2710944 552 346 559.6111584 346 569 C 346 578.3888416 322.2710944 586 293 586 C 263.7289056 586 240 578.3888416 240 569 Z" stroke-miterlimit="10"/></g><g transform="translate(-230,-230) scale(1,1)"><g><path fill="none" stroke="none"/><text fill="#000000" stroke="none" font-family="Arial" font-size="13px" font-style="normal" font-weight="bold" text-decoration="none" x="260.119140625" y="574.5">Secadores</text></g></g><g transform="translate(-230,-230) scale(1,1)"><path fill="none" stroke="#000000" d="M 727 297 L 322 551" stroke-miterlimit="10"/></g><g transform="translate(-230,-230) scale(1,1)"><path fill="none" stroke="#000000" d="M 328.3729829537573 542.0342268447657 L 322 551 L 332.8461384596345 549.1666204663417" stroke-miterlimit="10"/></g></g></svg>